<svg id="SvgjsSvg1154" width="471" height="525" xmlns="http://www.w3.org/2000/svg" version="1.1" xmlns:xlink="http://www.w3.org/1999/xlink" xmlns:svgjs="http://svgjs.com/svgjs"><defs id="SvgjsDefs1155"><pattern patternUnits="userSpaceOnUse" id="pattern_mark_0" width="300" height="300"><text x="150" y="100" fill="rgba(229,229,229,0.8)" font-size="18" transform="rotate(-45, 150, 150)" style="dominant-baseline: middle; text-anchor: middle;"></text></pattern><pattern patternUnits="userSpaceOnUse" id="pattern_mark_1" width="300" height="300"><text x="150" y="200" fill="rgba(229,229,229,0.8)" font-size="18" transform="rotate(-45, 150, 150)" style="dominant-baseline: middle; text-anchor: middle;"></text></pattern><marker id="SvgjsMarker1189" markerWidth="13" markerHeight="9" refX="9.5" refY="4.5" viewBox="0 0 13 9" orient="auto" markerUnits="userSpaceOnUse" stroke-dasharray="0,0"><path id="SvgjsPath1190" d="M0,0 L13,4.5 L0,9 L0,0" fill="#262626" stroke="#262626" stroke-width="1"></path></marker><marker id="SvgjsMarker1193" markerWidth="13" markerHeight="9" refX="9.5" refY="4.5" viewBox="0 0 13 9" orient="auto" markerUnits="userSpaceOnUse" stroke-dasharray="0,0"><path id="SvgjsPath1194" d="M0,0 L13,4.5 L0,9 L0,0" fill="#262626" stroke="#262626" stroke-width="1"></path></marker><marker id="SvgjsMarker1225" markerWidth="13" markerHeight="9" refX="9.5" refY="4.5" viewBox="0 0 13 9" orient="auto" markerUnits="userSpaceOnUse" stroke-dasharray="0,0"><path id="SvgjsPath1226" d="M0,0 L13,4.5 L0,9 L0,0" fill="#262626" stroke="#262626" stroke-width="1"></path></marker><marker id="SvgjsMarker1239" markerWidth="13" markerHeight="9" refX="9.5" refY="4.5" viewBox="0 0 13 9" orient="auto" markerUnits="userSpaceOnUse" stroke-dasharray="0,0"><path id="SvgjsPath1240" d="M0,0 L13,4.5 L0,9 L0,0" fill="#262626" stroke="#262626" stroke-width="1"></path></marker><marker id="SvgjsMarker1253" markerWidth="13" markerHeight="9" refX="9.5" refY="4.5" viewBox="0 0 13 9" orient="auto" markerUnits="userSpaceOnUse" stroke-dasharray="0,0"><path id="SvgjsPath1254" d="M0,0 L13,4.5 L0,9 L0,0" fill="#262626" stroke="#262626" stroke-width="1"></path></marker><marker id="SvgjsMarker1295" markerWidth="13" markerHeight="9" refX="9.5" refY="4.5" viewBox="0 0 13 9" orient="auto" markerUnits="userSpaceOnUse" stroke-dasharray="0,0"><path id="SvgjsPath1296" d="M0,0 L13,4.5 L0,9 L0,0" fill="#000000" stroke="#000000" stroke-width="1"></path></marker><marker id="SvgjsMarker1299" markerWidth="13" markerHeight="9" refX="9.5" refY="4.5" viewBox="0 0 13 9" orient="auto" markerUnits="userSpaceOnUse" stroke-dasharray="0,0"><path id="SvgjsPath1300" d="M0,0 L13,4.5 L0,9 L0,0" fill="#000000" stroke="#000000" stroke-width="1"></path></marker></defs><rect id="svgbackgroundid" width="471" height="525" fill="none"></rect><rect id="SvgjsRect1157" width="471" height="525" fill="url(#pattern_mark_0)"></rect><rect id="SvgjsRect1158" width="471" height="525" fill="url(#pattern_mark_1)"></rect><g id="SvgjsG1159" transform="translate(30,219)"><path id="SvgjsPath1160" d="M 0 4Q 0 0 4 0L 106 0Q 110 0 110 4L 110 49Q 110 53 106 53L 4 53Q 0 53 0 49Z" stroke="rgba(38,38,38,1)" stroke-width="1.5" fill-opacity="1" fill="#d2d6f9"></path><g id="SvgjsG1161"><text id="SvgjsText1162" font-family="阿里巴巴普惠" text-anchor="middle" font-size="13px" width="90px" fill="#262626" font-weight="400" align="middle" lineHeight="125%" anchor="middle" family="阿里巴巴普惠" size="13px" weight="400" font-style="" opacity="1" y="-0.125" transform="rotate(0)"><tspan id="SvgjsTspan1163" dy="16.25" x="55"><tspan id="SvgjsTspan1164" style="">点击</tspan></tspan><tspan id="SvgjsTspan1165" dy="16.25" x="55"><tspan id="SvgjsTspan1166" style="">“微信登录”</tspan></tspan><tspan id="SvgjsTspan1167" dy="16.25" x="55"><tspan id="SvgjsTspan1168" style="">后扫码登录</tspan></tspan></text></g></g><g id="SvgjsG1169" transform="translate(30,122)"><path id="SvgjsPath1170" d="M 0 4Q 0 0 4 0L 106 0Q 110 0 110 4L 110 49Q 110 53 106 53L 4 53Q 0 53 0 49Z" stroke="rgba(38,38,38,1)" stroke-width="1.5" fill-opacity="1" fill="#d2d6f9"></path><g id="SvgjsG1171"><text id="SvgjsText1172" font-family="阿里巴巴普惠" text-anchor="middle" font-size="13px" width="90px" fill="#262626" font-weight="400" align="middle" lineHeight="125%" anchor="middle" family="阿里巴巴普惠" size="13px" weight="400" font-style="" opacity="1" y="-0.125" transform="rotate(0)"><tspan id="SvgjsTspan1173" dy="16.25" x="55"><tspan id="SvgjsTspan1174" style="">下载软件</tspan></tspan><tspan id="SvgjsTspan1175" dy="16.25" x="55"><tspan id="SvgjsTspan1176" style="">"凌音助手"</tspan></tspan><tspan id="SvgjsTspan1177" dy="16.25" x="55"><tspan id="SvgjsTspan1178" style="">在安装后打开</tspan></tspan></text></g></g><g id="SvgjsG1179" transform="translate(25,25)"><path id="SvgjsPath1180" d="M 17.667 0L 102.333 0C 125.889 0 125.889 53 102.333 53L 17.667 53C -5.889 53 -5.889 0 17.667 0Z" stroke="rgba(38,38,38,1)" stroke-width="1.5" fill-opacity="1" fill="#d2d6f9"></path><g id="SvgjsG1181"><text id="SvgjsText1182" font-family="阿里巴巴普惠" text-anchor="middle" font-size="13px" width="100px" fill="#262626" font-weight="400" align="middle" lineHeight="125%" anchor="middle" family="阿里巴巴普惠" size="13px" weight="400" font-style="" opacity="1" y="7.875" transform="rotate(0)"><tspan id="SvgjsTspan1183" dy="16.25" x="60"><tspan id="SvgjsTspan1184" style="">访问官网</tspan></tspan><tspan id="SvgjsTspan1185" dy="16.25" x="60"><tspan id="SvgjsTspan1186" style="">nextvoice.cn后</tspan></tspan></text></g></g><g id="SvgjsG1187"><path id="SvgjsPath1188" d="M85 78.75L85 100L85 100L85 119.30000000000001" stroke="#262626" stroke-width="1.5" fill="none" marker-end="url(#SvgjsMarker1189)"></path></g><g id="SvgjsG1191"><path id="SvgjsPath1192" d="M85 175.75L85 197L85 197L85 216.3" stroke="#262626" stroke-width="1.5" fill="none" marker-end="url(#SvgjsMarker1193)"></path></g><g id="SvgjsG1195" transform="translate(184,90)"><path id="SvgjsPath1196" d="M 0 4Q 0 0 4 0L 106 0Q 110 0 110 4L 110 49Q 110 53 106 53L 4 53Q 0 53 0 49Z" stroke="rgba(38,38,38,1)" stroke-width="1.5" fill-opacity="1" fill="#d2d6f9"></path><g id="SvgjsG1197"><text id="SvgjsText1198" font-family="阿里巴巴普惠" text-anchor="middle" font-size="13px" width="90px" fill="#262626" font-weight="400" align="middle" lineHeight="125%" anchor="middle" family="阿里巴巴普惠" size="13px" weight="400" font-style="" opacity="1" y="-0.125" transform="rotate(0)"><tspan id="SvgjsTspan1199" dy="16.25" x="55"><tspan id="SvgjsTspan1200" style="">点击</tspan></tspan><tspan id="SvgjsTspan1201" dy="16.25" x="55"><tspan id="SvgjsTspan1202" style="">“连接服务”</tspan></tspan><tspan id="SvgjsTspan1203" dy="16.25" x="55"><tspan id="SvgjsTspan1204" style="">按钮</tspan></tspan></text></g></g><g id="SvgjsG1205" transform="translate(316,43)"><path id="SvgjsPath1206" d="M 0 35C 0 -11.667 90 -11.667 90 35Q 88.2 68.6 45 70Q 30 70 15 63L 0 70L 10.53 59.99Q 0 49 0 35" stroke="rgba(38,38,38,1)" stroke-width="1.5" fill-opacity="1" fill="#d2d6f9"></path><g id="SvgjsG1207"><text id="SvgjsText1208" font-family="阿里巴巴普惠" text-anchor="middle" font-size="13px" width="70px" fill="#262626" font-weight="400" align="middle" lineHeight="125%" anchor="middle" family="阿里巴巴普惠" size="13px" weight="400" font-style="" opacity="1" y="8.375" transform="rotate(0)"><tspan id="SvgjsTspan1209" dy="16.25" x="45"><tspan id="SvgjsTspan1210" style="">会需要权限</tspan></tspan><tspan id="SvgjsTspan1211" dy="16.25" x="45"><tspan id="SvgjsTspan1212" style="">获取，否则</tspan></tspan><tspan id="SvgjsTspan1213" dy="16.25" x="45"><tspan id="SvgjsTspan1214" style="">会连接失败</tspan></tspan></text></g></g><g id="SvgjsG1215" transform="translate(174,184)"><path id="SvgjsPath1216" d="M 0 4Q 0 0 4 0L 126 0Q 130 0 130 4L 130 49Q 130 53 126 53L 4 53Q 0 53 0 49Z" stroke="rgba(38,38,38,1)" stroke-width="1.5" fill-opacity="1" fill="#d2d6f9"></path><g id="SvgjsG1217"><text id="SvgjsText1218" font-family="阿里巴巴普惠" text-anchor="middle" font-size="13px" width="110px" fill="#262626" font-weight="400" align="middle" lineHeight="125%" anchor="middle" family="阿里巴巴普惠" size="13px" weight="400" font-style="" opacity="1" y="7.875" transform="rotate(0)"><tspan id="SvgjsTspan1219" dy="16.25" x="65"><tspan id="SvgjsTspan1220" style="">在电脑上打开你想</tspan></tspan><tspan id="SvgjsTspan1221" dy="16.25" x="65"><tspan id="SvgjsTspan1222" style="">输入文字的软件</tspan></tspan></text></g></g><g id="SvgjsG1223"><path id="SvgjsPath1224" d="M239 143.75L239 163.5L239 163.5L239 181.3" stroke="#262626" stroke-width="1.5" fill="none" marker-end="url(#SvgjsMarker1225)"></path></g><g id="SvgjsG1227" transform="translate(316,137)"><path id="SvgjsPath1228" d="M 0 35C 0 -11.667 90 -11.667 90 35Q 88.2 68.6 45 70Q 30 70 15 63L 0 70L 10.53 59.99Q 0 49 0 35" stroke="rgba(38,38,38,1)" stroke-width="1.5" fill-opacity="1" fill="#d2d6f9"></path><g id="SvgjsG1229"><text id="SvgjsText1230" font-family="阿里巴巴普惠" text-anchor="middle" font-size="13px" width="70px" fill="#262626" font-weight="400" align="middle" lineHeight="125%" anchor="middle" family="阿里巴巴普惠" size="13px" weight="400" font-style="" opacity="1" y="8.375" transform="rotate(0)"><tspan id="SvgjsTspan1231" dy="16.25" x="45"><tspan id="SvgjsTspan1232" style="">可以是飞书</tspan></tspan><tspan id="SvgjsTspan1233" dy="16.25" x="45"><tspan id="SvgjsTspan1234" style="">word、钉</tspan></tspan><tspan id="SvgjsTspan1235" dy="16.25" x="45"><tspan id="SvgjsTspan1236" style="">钉或其它</tspan></tspan></text></g></g><g id="SvgjsG1237"><path id="SvgjsPath1238" d="M140.24211748238383 244.79015556301107L183.12837706341827 119.0554399731601" stroke="#262626" stroke-width="1.5" fill="none" marker-end="url(#SvgjsMarker1239)"></path></g><g id="SvgjsG1241" transform="translate(179,284)"><path id="SvgjsPath1242" d="M 0 4Q 0 0 4 0L 116 0Q 120 0 120 4L 120 49Q 120 53 116 53L 4 53Q 0 53 0 49Z" stroke="rgba(38,38,38,1)" stroke-width="1.5" fill-opacity="1" fill="#d2d6f9"></path><g id="SvgjsG1243"><text id="SvgjsText1244" font-family="阿里巴巴普惠" text-anchor="middle" font-size="13px" width="100px" fill="#262626" font-weight="400" align="middle" lineHeight="125%" anchor="middle" family="阿里巴巴普惠" size="13px" weight="400" font-style="" opacity="1" y="-0.125" transform="rotate(0)"><tspan id="SvgjsTspan1245" dy="16.25" x="60"><tspan id="SvgjsTspan1246" style="">微信搜索服务号</tspan></tspan><tspan id="SvgjsTspan1247" dy="16.25" x="60"><tspan id="SvgjsTspan1248" style="">“凌音助手”</tspan></tspan><tspan id="SvgjsTspan1249" dy="16.25" x="60"><tspan id="SvgjsTspan1250" style="">并关注</tspan></tspan></text></g></g><g id="SvgjsG1251"><path id="SvgjsPath1252" d="M239 237.75L239 281.3" stroke="#262626" stroke-width="1.5" fill="none" marker-end="url(#SvgjsMarker1253)"></path></g><g id="SvgjsG1255" transform="translate(179,447)"><path id="SvgjsPath1256" d="M 17.667 0L 102.333 0C 125.889 0 125.889 53 102.333 53L 17.667 53C -5.889 53 -5.889 0 17.667 0Z" stroke="rgba(38,38,38,1)" stroke-width="1.5" fill-opacity="1" fill="#d2d6f9"></path><g id="SvgjsG1257"><text id="SvgjsText1258" font-family="阿里巴巴普惠" text-anchor="middle" font-size="13px" width="100px" fill="#262626" font-weight="400" align="middle" lineHeight="125%" anchor="middle" family="阿里巴巴普惠" size="13px" weight="400" font-style="" opacity="1" y="-0.125" transform="rotate(0)"><tspan id="SvgjsTspan1259" dy="16.25" x="60"><tspan id="SvgjsTspan1260" style="">点击“发送”后</tspan></tspan><tspan id="SvgjsTspan1261" dy="16.25" x="60"><tspan id="SvgjsTspan1262" style="">电脑上出现你输</tspan></tspan><tspan id="SvgjsTspan1263" dy="16.25" x="60"><tspan id="SvgjsTspan1264" style="">入的文本</tspan></tspan></text></g></g><g id="SvgjsG1265" transform="translate(316,386)"><path id="SvgjsPath1266" d="M 0 35C 0 -11.667 90 -11.667 90 35Q 88.2 68.6 45 70Q 30 70 15 63L 0 70L 10.53 59.99Q 0 49 0 35" stroke="rgba(38,38,38,1)" stroke-width="1.5" fill-opacity="1" fill="#d2d6f9"></path><g id="SvgjsG1267"><text id="SvgjsText1268" font-family="阿里巴巴普惠" text-anchor="middle" font-size="13px" width="70px" fill="#262626" font-weight="400" align="middle" lineHeight="125%" anchor="middle" family="阿里巴巴普惠" size="13px" weight="400" font-style="" opacity="1" y="16.375" transform="rotate(0)"><tspan id="SvgjsTspan1269" dy="16.25" x="45"><tspan id="SvgjsTspan1270" style="">如有疑问</tspan></tspan><tspan id="SvgjsTspan1271" dy="16.25" x="45"><tspan id="SvgjsTspan1272" style="">可个人咨询</tspan></tspan></text></g></g><g id="SvgjsG1273" transform="translate(276,243)"><path id="SvgjsPath1274" d="M 0 0L 170 0L 170 48L 0 48Z" stroke="none" fill="none"></path><g id="SvgjsG1275"><text id="SvgjsText1276" font-family="&quot;Microsoft YaHei&quot;, 微软雅黑, Arial" text-anchor="middle" font-size="13px" width="170px" fill="#000000" font-weight="400" align="middle" lineHeight="125%" anchor="middle" family="&quot;Microsoft YaHei&quot;, 微软雅黑, Arial" size="13px" weight="400" font-style="" opacity="1" y="-2.625" transform="rotate(0)"><tspan id="SvgjsTspan1277" dy="16.25" x="85"><tspan id="SvgjsTspan1278" style="">在你想输入文字的软件上，</tspan></tspan><tspan id="SvgjsTspan1279" dy="16.25" x="85"><tspan id="SvgjsTspan1280" style="">点击你想输入文本的位置，</tspan></tspan><tspan id="SvgjsTspan1281" dy="16.25" x="85"><tspan id="SvgjsTspan1282" style="">出现光标闪烁的效果</tspan></tspan></text></g></g><g id="SvgjsG1283" transform="translate(179,365.5)"><path id="SvgjsPath1284" d="M 0 4Q 0 0 4 0L 116 0Q 120 0 120 4L 120 49Q 120 53 116 53L 4 53Q 0 53 0 49Z" stroke="rgba(38,38,38,1)" stroke-width="1.5" fill-opacity="1" fill="#d2d6f9"></path><g id="SvgjsG1285"><text id="SvgjsText1286" font-family="阿里巴巴普惠" text-anchor="middle" font-size="13px" width="100px" fill="#262626" font-weight="400" align="middle" lineHeight="125%" anchor="middle" family="阿里巴巴普惠" size="13px" weight="400" font-style="" opacity="1" y="-0.125" transform="rotate(0)"><tspan id="SvgjsTspan1287" dy="16.25" x="60"><tspan id="SvgjsTspan1288" style="">进入微信服务</tspan></tspan><tspan id="SvgjsTspan1289" dy="16.25" x="60"><tspan id="SvgjsTspan1290" style="">号，做文本输入</tspan></tspan><tspan id="SvgjsTspan1291" dy="16.25" x="60"><tspan id="SvgjsTspan1292" style="">或语音输入</tspan></tspan></text></g></g><g id="SvgjsG1293"><path id="SvgjsPath1294" d="M239 337.75L239 351.25L239 351.25L239 362.8" stroke="#000000" stroke-width="1.5" fill="none" marker-end="url(#SvgjsMarker1295)"></path></g><g id="SvgjsG1297"><path id="SvgjsPath1298" d="M239 419.25L239 432.75L239 432.75L239 444.29999999999995" stroke="#000000" stroke-width="1.5" fill="none" marker-end="url(#SvgjsMarker1299)"></path></g><g id="SvgjsG1301" transform="translate(242,143)"><path id="SvgjsPath1302" d="M 0 0L 98 0L 98 40L 0 40Z" stroke="none" fill="none"></path><g id="SvgjsG1303"><text id="SvgjsText1304" font-family="&quot;Microsoft YaHei&quot;, 微软雅黑, Arial" text-anchor="middle" font-size="13px" width="98px" fill="#000000" font-weight="400" align="middle" lineHeight="125%" anchor="middle" family="&quot;Microsoft YaHei&quot;, 微软雅黑, Arial" size="13px" weight="400" font-style="" opacity="1" y="9.375" transform="rotate(0)"><tspan id="SvgjsTspan1305" dy="16.25" x="49"><tspan id="SvgjsTspan1306" style=""> </tspan></tspan></text></g></g><g id="SvgjsG1307"></g></svg>