<svg id="SvgjsSvg1382" width="443" height="539" xmlns="http://www.w3.org/2000/svg" version="1.1" xmlns:xlink="http://www.w3.org/1999/xlink" xmlns:svgjs="http://svgjs.com/svgjs"><defs id="SvgjsDefs1383"><pattern patternUnits="userSpaceOnUse" id="pattern_mark_0" width="300" height="300"><text x="150" y="100" fill="rgba(229,229,229,0.8)" font-size="18" transform="rotate(-45, 150, 150)" style="dominant-baseline: middle; text-anchor: middle;"></text></pattern><pattern patternUnits="userSpaceOnUse" id="pattern_mark_1" width="300" height="300"><text x="150" y="200" fill="rgba(229,229,229,0.8)" font-size="18" transform="rotate(-45, 150, 150)" style="dominant-baseline: middle; text-anchor: middle;"></text></pattern><marker id="SvgjsMarker1413" markerWidth="13" markerHeight="9" refX="9.5" refY="4.5" viewBox="0 0 13 9" orient="auto" markerUnits="userSpaceOnUse" stroke-dasharray="0,0"><path id="SvgjsPath1414" d="M0,0 L13,4.5 L0,9 L0,0" fill="#262626" stroke="#262626" stroke-width="1"></path></marker><marker id="SvgjsMarker1417" markerWidth="13" markerHeight="9" refX="9.5" refY="4.5" viewBox="0 0 13 9" orient="auto" markerUnits="userSpaceOnUse" stroke-dasharray="0,0"><path id="SvgjsPath1418" d="M0,0 L13,4.5 L0,9 L0,0" fill="#262626" stroke="#262626" stroke-width="1"></path></marker><marker id="SvgjsMarker1453" markerWidth="13" markerHeight="9" refX="9.5" refY="4.5" viewBox="0 0 13 9" orient="auto" markerUnits="userSpaceOnUse" stroke-dasharray="0,0"><path id="SvgjsPath1454" d="M0,0 L13,4.5 L0,9 L0,0" fill="#262626" stroke="#262626" stroke-width="1"></path></marker><marker id="SvgjsMarker1467" markerWidth="13" markerHeight="9" refX="9.5" refY="4.5" viewBox="0 0 13 9" orient="auto" markerUnits="userSpaceOnUse" stroke-dasharray="0,0"><path id="SvgjsPath1468" d="M0,0 L13,4.5 L0,9 L0,0" fill="#262626" stroke="#262626" stroke-width="1"></path></marker><marker id="SvgjsMarker1479" markerWidth="13" markerHeight="9" refX="9.5" refY="4.5" viewBox="0 0 13 9" orient="auto" markerUnits="userSpaceOnUse" stroke-dasharray="0,0"><path id="SvgjsPath1480" d="M0,0 L13,4.5 L0,9 L0,0" fill="#262626" stroke="#262626" stroke-width="1"></path></marker><marker id="SvgjsMarker1495" markerWidth="13" markerHeight="9" refX="9.5" refY="4.5" viewBox="0 0 13 9" orient="auto" markerUnits="userSpaceOnUse" stroke-dasharray="0,0"><path id="SvgjsPath1496" d="M0,0 L13,4.5 L0,9 L0,0" fill="#262626" stroke="#262626" stroke-width="1"></path></marker></defs><rect id="svgbackgroundid" width="443" height="539" fill="none"></rect><rect id="SvgjsRect1385" width="443" height="539" fill="url(#pattern_mark_0)"></rect><rect id="SvgjsRect1386" width="443" height="539" fill="url(#pattern_mark_1)"></rect><g id="SvgjsG1387" transform="translate(30,231)"><path id="SvgjsPath1388" d="M 0 4Q 0 0 4 0L 106 0Q 110 0 110 4L 110 49Q 110 53 106 53L 4 53Q 0 53 0 49Z" stroke="rgba(38,38,38,1)" stroke-width="1.5" fill-opacity="1" fill="#d2d6f9"></path><g id="SvgjsG1389"><text id="SvgjsText1390" font-family="阿里巴巴普惠" text-anchor="middle" font-size="13px" width="90px" fill="#262626" font-weight="400" align="middle" lineHeight="125%" anchor="middle" family="阿里巴巴普惠" size="13px" weight="400" font-style="" opacity="1" y="7.875" transform="rotate(0)"><tspan id="SvgjsTspan1391" dy="16.25" x="55"><tspan id="SvgjsTspan1392" style="">微信扫码</tspan></tspan><tspan id="SvgjsTspan1393" dy="16.25" x="55"><tspan id="SvgjsTspan1394" style="">登录</tspan></tspan></text></g></g><g id="SvgjsG1395" transform="translate(30,122)"><path id="SvgjsPath1396" d="M 0 4Q 0 0 4 0L 106 0Q 110 0 110 4L 110 49Q 110 53 106 53L 4 53Q 0 53 0 49Z" stroke="rgba(38,38,38,1)" stroke-width="1.5" fill-opacity="1" fill="#d2d6f9"></path><g id="SvgjsG1397"><text id="SvgjsText1398" font-family="阿里巴巴普惠" text-anchor="middle" font-size="13px" width="90px" fill="#262626" font-weight="400" align="middle" lineHeight="125%" anchor="middle" family="阿里巴巴普惠" size="13px" weight="400" font-style="" opacity="1" y="7.875" transform="rotate(0)"><tspan id="SvgjsTspan1399" dy="16.25" x="55"><tspan id="SvgjsTspan1400" style="">在电脑上下载</tspan></tspan><tspan id="SvgjsTspan1401" dy="16.25" x="55"><tspan id="SvgjsTspan1402" style="">软件"凌音助手"</tspan></tspan></text></g></g><g id="SvgjsG1403" transform="translate(25,25)"><path id="SvgjsPath1404" d="M 17.666666666666668 0L 102.33333333333333 0C 125.88888888888889 0 125.88888888888889 53 102.33333333333333 53L 17.666666666666668 53C -5.888888888888889 53 -5.888888888888889 0 17.666666666666668 0Z" stroke="rgba(38,38,38,1)" stroke-width="1.5" fill-opacity="1" fill="#d2d6f9"></path><g id="SvgjsG1405"><text id="SvgjsText1406" font-family="阿里巴巴普惠" text-anchor="middle" font-size="13px" width="100px" fill="#262626" font-weight="400" align="middle" lineHeight="125%" anchor="middle" family="阿里巴巴普惠" size="13px" weight="400" font-style="" opacity="1" y="7.875" transform="rotate(0)"><tspan id="SvgjsTspan1407" dy="16.25" x="60"><tspan id="SvgjsTspan1408" style="">关注微信服务号</tspan></tspan><tspan id="SvgjsTspan1409" dy="16.25" x="60"><tspan id="SvgjsTspan1410" style="">“凌音助手”</tspan></tspan></text></g></g><g id="SvgjsG1411"><path id="SvgjsPath1412" d="M85 78.75L85 100L85 100L85 119.30000000000001" stroke="#262626" stroke-width="1.5" fill="none" marker-end="url(#SvgjsMarker1413)"></path></g><g id="SvgjsG1415"><path id="SvgjsPath1416" d="M85 175.75L85 203L85 203L85 228.3" stroke="#262626" stroke-width="1.5" fill="none" marker-end="url(#SvgjsMarker1417)"></path><rect id="SvgjsRect1419" width="90" height="18" x="40" y="186.58018867924528" fill="none"></rect><text id="SvgjsText1420" font-family="阿里巴巴普惠" text-anchor="middle" font-size="13px" width="90px" fill="#262626" font-weight="400" align="top" lineHeight="16px" anchor="middle" family="阿里巴巴普惠" size="13px" weight="400" font-style="" opacity="1" y="183.95518867924528" transform="rotate(0)"><tspan id="SvgjsTspan1421" dy="16.25" x="85"><tspan id="SvgjsTspan1422" style="">安装后打开软件</tspan></tspan></text></g><g id="SvgjsG1423" transform="translate(196,178)"><path id="SvgjsPath1424" d="M 0 4Q 0 0 4 0L 106 0Q 110 0 110 4L 110 49Q 110 53 106 53L 4 53Q 0 53 0 49Z" stroke="rgba(38,38,38,1)" stroke-width="1.5" fill-opacity="1" fill="#d2d6f9"></path><g id="SvgjsG1425"><text id="SvgjsText1426" font-family="阿里巴巴普惠" text-anchor="middle" font-size="13px" width="90px" fill="#262626" font-weight="400" align="middle" lineHeight="125%" anchor="middle" family="阿里巴巴普惠" size="13px" weight="400" font-style="" opacity="1" y="-0.125" transform="rotate(0)"><tspan id="SvgjsTspan1427" dy="16.25" x="55"><tspan id="SvgjsTspan1428" style="">点击</tspan></tspan><tspan id="SvgjsTspan1429" dy="16.25" x="55"><tspan id="SvgjsTspan1430" style="">“连接服务”</tspan></tspan><tspan id="SvgjsTspan1431" dy="16.25" x="55"><tspan id="SvgjsTspan1432" style="">按钮</tspan></tspan></text></g></g><g id="SvgjsG1433" transform="translate(328,122)"><path id="SvgjsPath1434" d="M 0 35C 0 -11.666666666666666 90 -11.666666666666666 90 35Q 88.2 68.6 45 70Q 30 70 15 63L 0 70L 10.530000000000001 59.99Q 0 49 0 35" stroke="rgba(38,38,38,1)" stroke-width="1.5" fill-opacity="1" fill="#d2d6f9"></path><g id="SvgjsG1435"><text id="SvgjsText1436" font-family="阿里巴巴普惠" text-anchor="middle" font-size="13px" width="70px" fill="#262626" font-weight="400" align="middle" lineHeight="125%" anchor="middle" family="阿里巴巴普惠" size="13px" weight="400" font-style="" opacity="1" y="8.375" transform="rotate(0)"><tspan id="SvgjsTspan1437" dy="16.25" x="45"><tspan id="SvgjsTspan1438" style="">成功后</tspan></tspan><tspan id="SvgjsTspan1439" dy="16.25" x="45"><tspan id="SvgjsTspan1440" style="">会有展示图</tspan></tspan><tspan id="SvgjsTspan1441" dy="16.25" x="45"><tspan id="SvgjsTspan1442" style="">切换</tspan></tspan></text></g></g><g id="SvgjsG1443" transform="translate(186,272)"><path id="SvgjsPath1444" d="M 0 4Q 0 0 4 0L 126 0Q 130 0 130 4L 130 49Q 130 53 126 53L 4 53Q 0 53 0 49Z" stroke="rgba(38,38,38,1)" stroke-width="1.5" fill-opacity="1" fill="#d2d6f9"></path><g id="SvgjsG1445"><text id="SvgjsText1446" font-family="阿里巴巴普惠" text-anchor="middle" font-size="13px" width="110px" fill="#262626" font-weight="400" align="middle" lineHeight="125%" anchor="middle" family="阿里巴巴普惠" size="13px" weight="400" font-style="" opacity="1" y="7.875" transform="rotate(0)"><tspan id="SvgjsTspan1447" dy="16.25" x="65"><tspan id="SvgjsTspan1448" style="">在电脑上打开你想</tspan></tspan><tspan id="SvgjsTspan1449" dy="16.25" x="65"><tspan id="SvgjsTspan1450" style="">输入文字的软件</tspan></tspan></text></g></g><g id="SvgjsG1451"><path id="SvgjsPath1452" d="M251 231.75L251 251.5L251 251.5L251 269.3" stroke="#262626" stroke-width="1.5" fill="none" marker-end="url(#SvgjsMarker1453)"></path></g><g id="SvgjsG1455" transform="translate(328,214)"><path id="SvgjsPath1456" d="M 0 35C 0 -11.666666666666666 90 -11.666666666666666 90 35Q 88.2 68.6 45 70Q 30 70 15 63L 0 70L 10.530000000000001 59.99Q 0 49 0 35" stroke="rgba(38,38,38,1)" stroke-width="1.5" fill-opacity="1" fill="#d2d6f9"></path><g id="SvgjsG1457"><text id="SvgjsText1458" font-family="阿里巴巴普惠" text-anchor="middle" font-size="13px" width="70px" fill="#262626" font-weight="400" align="middle" lineHeight="125%" anchor="middle" family="阿里巴巴普惠" size="13px" weight="400" font-style="" opacity="1" y="8.375" transform="rotate(0)"><tspan id="SvgjsTspan1459" dy="16.25" x="45"><tspan id="SvgjsTspan1460" style="">可以是飞书</tspan></tspan><tspan id="SvgjsTspan1461" dy="16.25" x="45"><tspan id="SvgjsTspan1462" style="">word、钉</tspan></tspan><tspan id="SvgjsTspan1463" dy="16.25" x="45"><tspan id="SvgjsTspan1464" style="">钉或其他</tspan></tspan></text></g></g><g id="SvgjsG1465"><path id="SvgjsPath1466" d="M140.54472004985735 256.984461381385L194.03900782051363 206.3559390270139" stroke="#262626" stroke-width="1.5" fill="none" marker-end="url(#SvgjsMarker1467)"></path></g><g id="SvgjsG1469" transform="translate(191,374)"><path id="SvgjsPath1470" d="M 0 4Q 0 0 4 0L 116 0Q 120 0 120 4L 120 49Q 120 53 116 53L 4 53Q 0 53 0 49Z" stroke="rgba(38,38,38,1)" stroke-width="1.5" fill-opacity="1" fill="#d2d6f9"></path><g id="SvgjsG1471"><text id="SvgjsText1472" font-family="阿里巴巴普惠" text-anchor="middle" font-size="13px" width="100px" fill="#262626" font-weight="400" align="middle" lineHeight="125%" anchor="middle" family="阿里巴巴普惠" size="13px" weight="400" font-style="" opacity="1" y="7.875" transform="rotate(0)"><tspan id="SvgjsTspan1473" dy="16.25" x="60"><tspan id="SvgjsTspan1474" style="">进入微信服务号</tspan></tspan><tspan id="SvgjsTspan1475" dy="16.25" x="60"><tspan id="SvgjsTspan1476" style="">的“语音输入”</tspan></tspan></text></g></g><g id="SvgjsG1477"><path id="SvgjsPath1478" d="M251 325.75L251 371.29999999999995" stroke="#262626" stroke-width="1.5" fill="none" marker-end="url(#SvgjsMarker1479)"></path><rect id="SvgjsRect1481" width="141" height="18" x="180.5" y="335.881" fill="none"></rect><text id="SvgjsText1482" font-family="阿里巴巴普惠" text-anchor="middle" font-size="13px" width="141px" fill="#262626" font-weight="400" align="top" lineHeight="16px" anchor="middle" family="阿里巴巴普惠" size="13px" weight="400" font-style="" opacity="1" y="333.256" transform="rotate(0)"><tspan id="SvgjsTspan1483" dy="16.25" x="251"><tspan id="SvgjsTspan1484" style="">点击你想输入文本的位置</tspan></tspan></text></g><g id="SvgjsG1485" transform="translate(191,461)"><path id="SvgjsPath1486" d="M 17.666666666666668 0L 102.33333333333333 0C 125.88888888888889 0 125.88888888888889 53 102.33333333333333 53L 17.666666666666668 53C -5.888888888888889 53 -5.888888888888889 0 17.666666666666668 0Z" stroke="rgba(38,38,38,1)" stroke-width="1.5" fill-opacity="1" fill="#d2d6f9"></path><g id="SvgjsG1487"><text id="SvgjsText1488" font-family="阿里巴巴普惠" text-anchor="middle" font-size="13px" width="100px" fill="#262626" font-weight="400" align="middle" lineHeight="125%" anchor="middle" family="阿里巴巴普惠" size="13px" weight="400" font-style="" opacity="1" y="7.875" transform="rotate(0)"><tspan id="SvgjsTspan1489" dy="16.25" x="60"><tspan id="SvgjsTspan1490" style="">点击“发送”</tspan></tspan><tspan id="SvgjsTspan1491" dy="16.25" x="60"><tspan id="SvgjsTspan1492" style="">后页面出现文本</tspan></tspan></text></g></g><g id="SvgjsG1493"><path id="SvgjsPath1494" d="M251 427.75L251 458.29999999999995" stroke="#262626" stroke-width="1.5" fill="none" marker-end="url(#SvgjsMarker1495)"></path></g><g id="SvgjsG1497" transform="translate(328,396)"><path id="SvgjsPath1498" d="M 0 35C 0 -11.666666666666666 90 -11.666666666666666 90 35Q 88.2 68.6 45 70Q 30 70 15 63L 0 70L 10.530000000000001 59.99Q 0 49 0 35" stroke="rgba(38,38,38,1)" stroke-width="1.5" fill-opacity="1" fill="#d2d6f9"></path><g id="SvgjsG1499"><text id="SvgjsText1500" font-family="阿里巴巴普惠" text-anchor="middle" font-size="13px" width="70px" fill="#262626" font-weight="400" align="middle" lineHeight="125%" anchor="middle" family="阿里巴巴普惠" size="13px" weight="400" font-style="" opacity="1" y="16.375" transform="rotate(0)"><tspan id="SvgjsTspan1501" dy="16.25" x="45"><tspan id="SvgjsTspan1502" style="">如有疑问</tspan></tspan><tspan id="SvgjsTspan1503" dy="16.25" x="45"><tspan id="SvgjsTspan1504" style="">可个人咨询</tspan></tspan></text></g></g><g id="SvgjsG1505"></g></svg>